<svg width="34" height="34" viewBox="0 0 34 34" fill="none" xmlns="http://www.w3.org/2000/svg">
<g id="icons">
<rect id="bg" opacity="0.1" x="0.0668945" width="33.6543" height="33.6543" rx="6.62281" fill="#427A0A"/>
<g id="icons_2">
<g id="net worth">
<path id="Fill 2" fill-rule="evenodd" clip-rule="evenodd" d="M10.4434 24.5925H11.6796V18.4112H10.4434V24.5925ZM12.2977 25.8289H9.82516C9.48333 25.8289 9.20703 25.5525 9.20703 25.2107V17.7932C9.20703 17.4514 9.48333 17.175 9.82516 17.175H12.2977C12.6395 17.175 12.9158 17.4514 12.9158 17.7932V25.2107C12.9158 25.5525 12.6395 25.8289 12.2977 25.8289Z" fill="#427A0A"/>
<path id="Fill 4" fill-rule="evenodd" clip-rule="evenodd" d="M16.0067 24.5927H17.243V13.4664H16.0067V24.5927ZM17.861 25.8291H15.3885C15.0467 25.8291 14.7704 25.5528 14.7704 25.2109V12.8484C14.7704 12.5065 15.0467 12.2302 15.3885 12.2302H17.861C18.2029 12.2302 18.4792 12.5065 18.4792 12.8484V25.2109C18.4792 25.5528 18.2029 25.8291 17.861 25.8291Z" fill="#427A0A"/>
<path id="Fill 5" fill-rule="evenodd" clip-rule="evenodd" d="M21.5697 24.5927H22.806V8.52131H21.5697V24.5927ZM23.424 25.829H20.9515C20.6097 25.829 20.3334 25.5527 20.3334 25.2109V7.90329C20.3334 7.56146 20.6097 7.28516 20.9515 7.28516H23.424C23.7658 7.28516 24.0421 7.56146 24.0421 7.90329V25.2109C24.0421 25.5527 23.7658 25.829 23.424 25.829Z" fill="#427A0A"/>
</g>
</g>
</g>
</svg>
