<svg width="21" height="21" viewBox="0 0 21 21" fill="none" xmlns="http://www.w3.org/2000/svg">
<g id="097-twoo" clip-path="url(#clip0_1_454)">
<path id="Vector" d="M9.39154 14.5991C9.44487 14.5541 9.49904 14.5075 9.54904 14.4583C6.76487 17.19 2.22487 15.915 1.16071 12.0625V12.0566C-0.266793 6.81496 5.75237 2.83329 9.54737 6.49996C9.62654 6.58412 14.869 12.175 14.5357 11.8191H14.5507C15.3332 12.6258 16.4649 12.5375 17.1382 11.8325C17.8624 11.0758 17.8882 9.84079 17.1774 9.07162C16.0549 7.77912 13.8507 8.74496 14.0615 10.6608L12.7999 9.37579L11.3365 7.97662C11.6382 7.37746 12.034 6.85329 12.5299 6.39996C12.4765 6.44579 12.4224 6.49329 12.3724 6.54079C15.1674 3.79912 19.704 5.10412 20.7607 8.93996V8.94496C22.1915 14.1858 16.1657 18.1675 12.374 14.5008C12.2965 14.4175 7.05737 8.79162 7.38904 9.14829L7.38571 9.13579C7.37237 9.13579 7.37237 9.12329 7.37237 9.12329C6.55071 8.27579 5.43654 8.40329 4.78487 9.09746C4.05987 9.85412 4.03487 11.0891 4.74737 11.8466C5.82071 13.1091 8.07237 12.1733 7.86071 10.2191C7.94237 10.3033 10.7682 13.2041 10.5882 13.02C10.1307 13.9325 9.61904 14.3516 9.39154 14.5991Z" fill="#3734A9"/>
</g>
<defs>
<clipPath id="clip0_1_454">
<rect width="20" height="20" fill="white" transform="translate(0.960938 0.5)"/>
</clipPath>
</defs>
</svg>
