<svg width="34" height="34" viewBox="0 0 34 34" fill="none" xmlns="http://www.w3.org/2000/svg">
<g id="icons">
<rect id="bg" opacity="0.1" x="0.0668945" y="0.180664" width="33.6543" height="33.6543" rx="6.86284" fill="#1A55AF"/>
<g id="icons_2">
<g id="harvested losses">
<path id="Fill 2" fill-rule="evenodd" clip-rule="evenodd" d="M10.4991 12.8538H8.89783C8.54363 12.8538 8.25732 13.1401 8.25732 13.4943C8.25732 13.8485 8.54363 14.1348 8.89783 14.1348H9.53834V14.7753C9.53834 15.1295 9.82465 15.4159 10.1789 15.4159C10.5324 15.4159 10.8194 15.1295 10.8194 14.7753V14.1022C11.5489 13.9536 12.1004 13.3073 12.1004 12.5336C12.1004 11.6503 11.3817 10.9323 10.4991 10.9323H9.8586C9.68182 10.9323 9.53834 10.7882 9.53834 10.612C9.53834 10.4359 9.68182 10.2918 9.8586 10.2918H11.4599C11.8134 10.2918 12.1004 10.0055 12.1004 9.65126C12.1004 9.29706 11.8134 9.01076 11.4599 9.01076H10.8194V8.37025C10.8194 8.01604 10.5324 7.72974 10.1789 7.72974C9.82465 7.72974 9.53834 8.01604 9.53834 8.37025V9.04342C8.80816 9.19202 8.25732 9.83829 8.25732 10.612C8.25732 11.4953 8.97534 12.2133 9.8586 12.2133H10.4991C10.6752 12.2133 10.8194 12.3574 10.8194 12.5336C10.8194 12.7097 10.6752 12.8538 10.4991 12.8538Z" fill="#1A55AF"/>
<path id="Fill 4" fill-rule="evenodd" clip-rule="evenodd" d="M21.0673 22.4615H11.4597C11.1068 22.4615 10.8192 22.1746 10.8192 21.821V18.8836L11.6473 19.7118C11.8978 19.9623 12.3026 19.9623 12.553 19.7118C12.8035 19.4614 12.8035 19.0566 12.553 18.8061L10.6315 16.8846C10.3811 16.6342 9.97625 16.6342 9.72581 16.8846L7.80428 18.8061C7.55385 19.0566 7.55385 19.4614 7.80428 19.7118C8.05472 19.9623 8.45953 19.9623 8.70996 19.7118L9.53814 18.8836V21.821C9.53814 22.8804 10.4003 23.7425 11.4597 23.7425H21.0673C21.4209 23.7425 21.7078 23.4562 21.7078 23.102C21.7078 22.7478 21.4209 22.4615 21.0673 22.4615Z" fill="#1A55AF"/>
<path id="Fill 6" fill-rule="evenodd" clip-rule="evenodd" d="M23.9494 21.8211H25.5507C25.9049 21.8211 26.1912 21.5348 26.1912 21.1806C26.1912 20.8264 25.9049 20.5401 25.5507 20.5401H24.9102V19.8995C24.9102 19.5453 24.6239 19.259 24.2697 19.259C23.9161 19.259 23.6292 19.5453 23.6292 19.8995V20.5727C22.8996 20.7213 22.3481 21.3676 22.3481 22.1413C22.3481 23.0246 23.0668 23.7426 23.9494 23.7426H24.5899C24.7667 23.7426 24.9102 23.8867 24.9102 24.0629C24.9102 24.239 24.7667 24.3831 24.5899 24.3831H22.9887C22.6351 24.3831 22.3481 24.6694 22.3481 25.0236C22.3481 25.3778 22.6351 25.6641 22.9887 25.6641H23.6292V26.3046C23.6292 26.6588 23.9161 26.9451 24.2697 26.9451C24.6239 26.9451 24.9102 26.6588 24.9102 26.3046V25.6315C25.6404 25.4829 26.1912 24.8366 26.1912 24.0629C26.1912 23.1796 25.4732 22.4616 24.5899 22.4616H23.9494C23.7733 22.4616 23.6292 22.3175 23.6292 22.1413C23.6292 21.9652 23.7733 21.8211 23.9494 21.8211Z" fill="#1A55AF"/>
<path id="Fill 8" fill-rule="evenodd" clip-rule="evenodd" d="M26.6445 14.9631C26.3941 14.7127 25.9893 14.7127 25.7388 14.9631L24.9106 15.7913V12.8539C24.9106 11.7945 24.0485 10.9324 22.9891 10.9324H13.3815C13.0279 10.9324 12.741 11.2187 12.741 11.5729C12.741 11.9271 13.0279 12.2134 13.3815 12.2134H22.9891C23.342 12.2134 23.6296 12.5003 23.6296 12.8539V15.7913L22.8014 14.9631C22.551 14.7127 22.1462 14.7127 21.8958 14.9631C21.6453 15.2135 21.6453 15.6183 21.8958 15.8688L23.8173 17.7903C24.0677 18.0407 24.4725 18.0407 24.723 17.7903L26.6445 15.8688C26.8949 15.6183 26.8949 15.2135 26.6445 14.9631Z" fill="#1A55AF"/>
</g>
</g>
</g>
</svg>
