<svg width="20" height="21" viewBox="0 0 20 21" fill="none" xmlns="http://www.w3.org/2000/svg">
<g id="052-linkedin" clip-path="url(#clip0_1_448)">
<path id="Vector" d="M19.9951 20.4999V20.4991H20.0001V13.1641C20.0001 9.57577 19.2276 6.8116 15.0326 6.8116C13.0159 6.8116 11.6626 7.91827 11.1101 8.96743H11.0517V7.1466H7.07422V20.4991H11.2159V13.8874C11.2159 12.1466 11.5459 10.4633 13.7017 10.4633C15.8259 10.4633 15.8576 12.4499 15.8576 13.9991V20.4999H19.9951Z" fill="#3734A9"/>
<path id="Vector_2" d="M0.3302 7.14774H4.47687V20.5002H0.3302V7.14774Z" fill="#3734A9"/>
<path id="Vector_3" d="M2.40167 0.5C1.07583 0.5 0 1.57583 0 2.90167C0 4.2275 1.07583 5.32583 2.40167 5.32583C3.7275 5.32583 4.80333 4.2275 4.80333 2.90167C4.8025 1.57583 3.72667 0.5 2.40167 0.5V0.5Z" fill="#3734A9"/>
</g>
<defs>
<clipPath id="clip0_1_448">
<rect width="20" height="20" fill="white" transform="translate(0 0.5)"/>
</clipPath>
</defs>
</svg>
