<svg width="35" height="34" viewBox="0 0 35 34" fill="none" xmlns="http://www.w3.org/2000/svg">
<g id="icons">
<rect id="bg" opacity="0.1" x="0.433716" y="0.180664" width="33.6543" height="33.6543" rx="6.73086" fill="#5843BE"/>
<g id="icons_2">
<g id="goals">
<path id="Fill 2" fill-rule="evenodd" clip-rule="evenodd" d="M17.3957 21.3154C16.2078 21.3154 15.2418 20.3493 15.2418 19.1614C15.2418 17.9735 16.2078 17.0075 17.3957 17.0075C18.5836 17.0075 19.5496 17.9735 19.5496 19.1614C19.5496 20.3493 18.5836 21.3154 17.3957 21.3154ZM17.3956 15.9304C15.6137 15.9304 14.1647 17.3795 14.1647 19.1613C14.1647 20.9432 15.6137 22.3922 17.3956 22.3922C19.1774 22.3922 20.6265 20.9432 20.6265 19.1613C20.6265 17.3795 19.1774 15.9304 17.3956 15.9304Z" fill="#5843BE"/>
<path id="Fill 4" fill-rule="evenodd" clip-rule="evenodd" d="M20.5411 14.1517C19.8766 13.7327 19.1244 13.4446 18.3177 13.3176L20.386 10.0075H23.3751L20.5411 14.1517ZM22.2417 19.1616C22.2417 21.8335 20.0679 24.0079 17.3954 24.0079C14.7234 24.0079 12.549 21.8335 12.549 19.1616C12.549 16.4891 14.7234 14.3152 17.3954 14.3152C20.0679 14.3152 22.2417 16.4891 22.2417 19.1616ZM11.4156 10.0075H14.4047L16.4736 13.3176C15.6664 13.4446 14.9147 13.7327 14.2497 14.1517L11.4156 10.0075ZM24.8717 9.21743C24.779 9.04081 24.5954 8.93042 24.3956 8.93042H20.0878C19.902 8.93042 19.7297 9.02573 19.6311 9.18351L17.3954 12.7606L15.1596 9.18351C15.061 9.02573 14.8887 8.93042 14.703 8.93042H10.3951C10.1953 8.93042 10.0122 9.04081 9.91907 9.21743C9.82592 9.39405 9.8383 9.60783 9.95084 9.77261L13.3934 14.8074C12.2157 15.8908 11.4721 17.439 11.4721 19.1616C11.4721 22.4275 14.1295 25.0849 17.3954 25.0849C20.6618 25.0849 23.3187 22.4275 23.3187 19.1616C23.3187 17.439 22.575 15.8908 21.3974 14.8074L24.8404 9.77261C24.953 9.60783 24.9654 9.39405 24.8717 9.21743Z" fill="#5843BE"/>
</g>
</g>
</g>
</svg>
