<svg width="35" height="34" viewBox="0 0 35 34" fill="none" xmlns="http://www.w3.org/2000/svg">
<g id="icons">
<rect id="bg" opacity="0.1" x="0.433716" y="0.346191" width="33.6543" height="33.6543" rx="6.62281" fill="#FA5F1C"/>
<g id="icons_2">
<g id="earnings">
<path id="Fill 2" fill-rule="evenodd" clip-rule="evenodd" d="M23.0558 16.3934L21.0895 14.6113L18.4513 21.6036L23.0558 16.3934ZM18.3597 18.3438L20.2481 13.3413C20.2481 13.34 20.2487 13.3388 20.2493 13.3375L20.729 12.0667L18.3597 11.15V18.3438ZM17.2716 21.2296H13.6383L16.8087 22.4565L17.2716 21.2296ZM16.5975 23.7009L13.2071 22.3886L15.734 24.6781L16.5975 23.7009ZM10.9424 19.9933H17.1237V8.86701H10.9424V19.9933ZM24.3866 16.7544L16.2459 25.9658C16.1365 26.09 15.9819 26.1648 15.8169 26.1735C15.8058 26.1741 15.794 26.1747 15.7823 26.1747C15.6296 26.1747 15.4812 26.1179 15.3675 26.0146L9.90942 21.0684C9.90695 21.0665 9.90633 21.0634 9.90324 21.0609C9.90015 21.0579 9.89582 21.056 9.89335 21.0529C9.85688 21.0171 9.83339 20.9726 9.80619 20.9293C9.79259 20.907 9.77281 20.8879 9.7623 20.865C9.76107 20.8619 9.75921 20.8607 9.7586 20.8582C9.745 20.8279 9.74438 20.7927 9.73634 20.7605C9.73511 20.7568 9.73449 20.7525 9.73325 20.7482C9.7246 20.7098 9.70915 20.674 9.70791 20.6351C9.70729 20.6301 9.70791 20.6252 9.70791 20.6202C9.70791 20.6171 9.70605 20.6147 9.70605 20.6116V8.24899C9.70605 7.90716 9.98298 7.63086 10.3242 7.63086H17.7417C18.0836 7.63086 18.3599 7.90716 18.3599 8.24899V9.82398L21.7466 11.1344C22.0637 11.2568 22.2219 11.6122 22.102 11.9293L21.5593 13.3677L24.3384 15.8872C24.5887 16.1147 24.6104 16.501 24.3866 16.7544ZM13.4146 13.5031C13.4146 13.6737 13.5531 13.8122 13.7237 13.8122H14.3418C15.1942 13.8122 15.8871 14.5051 15.8871 15.3575C15.8871 16.1042 15.3555 16.7279 14.6509 16.8713V17.521C14.6509 17.8628 14.3746 18.1391 14.0327 18.1391C13.6915 18.1391 13.4146 17.8628 13.4146 17.521V16.9028H12.7965C12.4553 16.9028 12.1784 16.6265 12.1784 16.2847C12.1784 15.9429 12.4553 15.6666 12.7965 15.6666H14.3424C14.5124 15.6666 14.6509 15.5281 14.6509 15.3575C14.6509 15.1875 14.5124 15.0484 14.3418 15.0484H13.7237C12.8719 15.0484 12.1784 14.3555 12.1784 13.5031C12.1784 12.7564 12.7106 12.1327 13.4146 11.9893V11.3397C13.4146 10.9979 13.6915 10.7215 14.0327 10.7215C14.3746 10.7215 14.6509 10.9979 14.6509 11.3397V11.9578H15.269C15.6108 11.9578 15.8871 12.2341 15.8871 12.5759C15.8871 12.9178 15.6108 13.1941 15.269 13.1941H13.7237C13.5531 13.1941 13.4146 13.3331 13.4146 13.5031Z" fill="#FA5F1C"/>
</g>
</g>
</g>
</svg>
