<svg width="22" height="23" viewBox="0 0 22 23" fill="none" xmlns="http://www.w3.org/2000/svg">
<g id="more">
<rect id="Rectangle 82" x="0.229248" y="0.786621" width="21.7708" height="21.7708" rx="6.04743" fill="white"/>
<g id="more_2">
<path id="Vector" d="M7.48598 12.8814C8.15396 12.8814 8.69546 12.3399 8.69546 11.6719C8.69546 11.0039 8.15396 10.4624 7.48598 10.4624C6.81799 10.4624 6.27649 11.0039 6.27649 11.6719C6.27649 12.3399 6.81799 12.8814 7.48598 12.8814Z" fill="#3246D3"/>
<path id="Vector_2" d="M11.1144 12.8814C11.7824 12.8814 12.3239 12.3399 12.3239 11.6719C12.3239 11.0039 11.7824 10.4624 11.1144 10.4624C10.4464 10.4624 9.90491 11.0039 9.90491 11.6719C9.90491 12.3399 10.4464 12.8814 11.1144 12.8814Z" fill="#3246D3"/>
<path id="Vector_3" d="M14.7429 12.8814C15.4109 12.8814 15.9524 12.3399 15.9524 11.6719C15.9524 11.0039 15.4109 10.4624 14.7429 10.4624C14.075 10.4624 13.5334 11.0039 13.5334 11.6719C13.5334 12.3399 14.075 12.8814 14.7429 12.8814Z" fill="#3246D3"/>
</g>
</g>
</svg>
