<svg width="364" height="308" viewBox="0 0 364 308" fill="none" xmlns="http://www.w3.org/2000/svg">
<g filter="url(#filter0_dddddd_1_888)">
<rect x="59.0002" y="17.166" width="53.2174" height="159.047" rx="26.6087" fill="white"/>
<rect x="59.3026" y="17.4684" width="52.6126" height="158.443" rx="26.3063" stroke="#E2E2E2" stroke-width="0.604743"/>
</g>
<path d="M79.0817 150.95C80.1044 150.95 80.9469 151.271 81.6093 151.914C82.2716 152.547 82.6028 153.37 82.6028 154.383C82.6028 155.396 82.2716 156.224 81.6093 156.867C80.9469 157.51 80.1044 157.831 79.0817 157.831C78.0492 157.831 77.2018 157.51 76.5395 156.867C75.8869 156.224 75.5606 155.396 75.5606 154.383C75.5606 153.594 75.7651 152.912 76.1742 152.338L79.4615 147.414H81.0102L78.5995 150.979C78.8138 150.96 78.9745 150.95 79.0817 150.95ZM77.5038 155.947C77.9128 156.336 78.4388 156.531 79.0817 156.531C79.7245 156.531 80.2456 156.336 80.645 155.947C81.0541 155.547 81.2586 155.026 81.2586 154.383C81.2586 153.74 81.0541 153.224 80.645 152.835C80.2456 152.445 79.7245 152.25 79.0817 152.25C78.4291 152.25 77.9031 152.445 77.5038 152.835C77.1044 153.224 76.9047 153.74 76.9047 154.383C76.9047 155.026 77.1044 155.547 77.5038 155.947ZM89.5798 150.658C89.5798 151.447 89.3704 152.133 88.9515 152.718H88.9662L85.6642 157.641H84.1301L86.5554 154.062C86.3412 154.081 86.1756 154.091 86.0587 154.091C85.0262 154.091 84.1788 153.774 83.5165 153.141C82.8639 152.499 82.5376 151.671 82.5376 150.658C82.5376 149.645 82.8639 148.822 83.5165 148.188C84.1788 147.546 85.0262 147.224 86.0587 147.224C87.0912 147.224 87.9337 147.546 88.5863 148.188C89.2486 148.822 89.5798 149.645 89.5798 150.658ZM84.4808 149.109C84.0814 149.499 83.8817 150.015 83.8817 150.658C83.8817 151.3 84.0814 151.822 84.4808 152.221C84.8899 152.611 85.4158 152.805 86.0587 152.805C86.7015 152.805 87.2227 152.611 87.622 152.221C88.0311 151.822 88.2356 151.3 88.2356 150.658C88.2356 150.015 88.036 149.499 87.6366 149.109C87.2373 148.719 86.7113 148.524 86.0587 148.524C85.4158 148.524 84.8899 148.719 84.4808 149.109Z" fill="#0B1018"/>
<path d="M84.0528 45.1621C84.1806 44.8953 84.364 44.6841 84.603 44.5285C84.842 44.3673 85.117 44.2868 85.4283 44.2868C85.8951 44.2868 86.2869 44.4507 86.6037 44.7786C86.9205 45.1065 87.0789 45.5066 87.0789 45.979V48.4966H81.2435V46.1624C81.2435 45.7067 81.3963 45.3205 81.7019 45.0037C82.0076 44.6869 82.3855 44.5285 82.8357 44.5285C83.3525 44.5285 83.7582 44.7397 84.0528 45.1621ZM81.9687 46.1624V47.7213H83.7527V46.1624C83.7527 45.9179 83.6665 45.7123 83.4943 45.5455C83.322 45.3788 83.1108 45.2955 82.8607 45.2955C82.6162 45.2955 82.4078 45.3816 82.2355 45.5539C82.0576 45.7206 81.9687 45.9235 81.9687 46.1624ZM86.3536 45.979C86.3536 45.7178 86.2619 45.4983 86.0785 45.3205C85.8951 45.1426 85.67 45.0537 85.4033 45.0537C85.1421 45.0537 84.9198 45.1454 84.7364 45.3288C84.553 45.5066 84.4613 45.7234 84.4613 45.979V47.7213H86.3536V45.979ZM81.2435 39.796H81.977V41.5216H87.0789V42.2885H81.977V44.0058H81.2435V39.796ZM87.1872 36.6198C87.1872 37.5035 86.8955 38.2343 86.3119 38.8123C85.7284 39.3847 85.0115 39.6709 84.1612 39.6709C83.3109 39.6709 82.5939 39.3847 82.0104 38.8123C81.4269 38.2343 81.1351 37.5035 81.1351 36.6198C81.1351 36.0863 81.2629 35.5973 81.5185 35.1527C81.7742 34.7025 82.1188 34.3524 82.5522 34.1023L82.9441 34.7775C82.6217 34.9443 82.3661 35.1943 82.1771 35.5278C81.9826 35.8557 81.8853 36.2197 81.8853 36.6198C81.8853 37.2923 82.1021 37.8425 82.5356 38.2704C82.9691 38.6928 83.5109 38.904 84.1612 38.904C84.8058 38.904 85.3449 38.6928 85.7784 38.2704C86.2119 37.8425 86.4286 37.2923 86.4286 36.6198C86.4286 36.2197 86.3341 35.8557 86.1452 35.5278C85.9507 35.1943 85.695 34.9443 85.3783 34.7775L85.7617 34.1023C86.1952 34.3468 86.5426 34.6942 86.8038 35.1443C87.0594 35.5945 87.1872 36.0863 87.1872 36.6198Z" fill="#0B1018"/>
<path d="M93.8883 153.742C93.6364 153.742 93.4271 153.659 93.2603 153.492C93.0936 153.326 93.0103 153.122 93.0103 152.881C93.0103 152.644 93.0936 152.442 93.2603 152.275C93.4308 152.105 93.6401 152.02 93.8883 152.02C94.1403 152.02 94.3496 152.103 94.5163 152.27C94.6831 152.436 94.7664 152.64 94.7664 152.881C94.7664 153.122 94.6831 153.326 94.5163 153.492C94.3533 153.659 94.144 153.742 93.8883 153.742ZM93.566 153.209C93.6512 153.294 93.7587 153.337 93.8883 153.337C94.018 153.337 94.1236 153.292 94.2051 153.203C94.2903 153.114 94.3329 153.007 94.3329 152.881C94.3329 152.755 94.2903 152.65 94.2051 152.564C94.1236 152.475 94.018 152.431 93.8883 152.431C93.7587 152.431 93.6512 152.475 93.566 152.564C93.4845 152.65 93.4437 152.755 93.4437 152.881C93.4437 153.011 93.4845 153.12 93.566 153.209ZM93.2715 155.432L95.8557 152.542L96.128 152.692L93.5382 155.588L93.2715 155.432ZM96.1947 155.799C96.028 155.966 95.8187 156.049 95.5667 156.049C95.3148 156.049 95.1054 155.966 94.9387 155.799C94.772 155.632 94.6886 155.428 94.6886 155.187C94.6886 154.947 94.772 154.743 94.9387 154.576C95.1054 154.409 95.3148 154.326 95.5667 154.326C95.8187 154.326 96.028 154.409 96.1947 154.576C96.3614 154.743 96.4448 154.947 96.4448 155.187C96.4448 155.428 96.3614 155.632 96.1947 155.799ZM95.2444 155.51C95.3296 155.595 95.437 155.638 95.5667 155.638C95.6964 155.638 95.802 155.595 95.8835 155.51C95.9687 155.421 96.0113 155.313 96.0113 155.187C96.0113 155.061 95.9687 154.956 95.8835 154.871C95.802 154.782 95.6964 154.737 95.5667 154.737C95.437 154.737 95.3296 154.782 95.2444 154.871C95.1629 154.956 95.1221 155.061 95.1221 155.187C95.1221 155.313 95.1629 155.421 95.2444 155.51Z" fill="#0B1018"/>
<g filter="url(#filter1_dddddd_1_888)">
<rect x="121.894" y="17.166" width="53.2174" height="159.047" rx="26.6087" fill="white"/>
<rect x="122.196" y="17.4684" width="52.6126" height="158.443" rx="26.3063" stroke="#E2E2E2" stroke-width="0.604743"/>
</g>
<path d="M144.006 152.352C144.503 152.606 144.892 152.947 145.175 153.375C145.457 153.804 145.598 154.291 145.598 154.836C145.598 155.771 145.272 156.507 144.62 157.042C143.967 157.568 143.124 157.831 142.092 157.831C141.069 157.831 140.232 157.568 139.579 157.042C138.926 156.507 138.6 155.771 138.6 154.836C138.6 154.291 138.741 153.804 139.024 153.375C139.306 152.947 139.696 152.606 140.193 152.352C139.355 151.826 138.936 151.081 138.936 150.117C138.936 149.192 139.243 148.481 139.857 147.984C140.48 147.477 141.225 147.224 142.092 147.224C142.969 147.224 143.714 147.477 144.327 147.984C144.951 148.481 145.262 149.192 145.262 150.117C145.262 151.081 144.844 151.826 144.006 152.352ZM142.092 148.524C141.576 148.524 141.142 148.661 140.792 148.934C140.451 149.206 140.28 149.611 140.28 150.146C140.28 150.662 140.456 151.067 140.806 151.359C141.157 151.641 141.585 151.783 142.092 151.783C142.598 151.783 143.027 151.641 143.378 151.359C143.728 151.067 143.904 150.662 143.904 150.146C143.904 149.611 143.733 149.206 143.392 148.934C143.051 148.661 142.618 148.524 142.092 148.524ZM142.092 156.531C142.745 156.531 143.266 156.38 143.655 156.078C144.055 155.766 144.254 155.323 144.254 154.749C144.254 154.184 144.055 153.75 143.655 153.448C143.266 153.136 142.745 152.981 142.092 152.981C141.449 152.981 140.928 153.136 140.529 153.448C140.139 153.75 139.944 154.184 139.944 154.749C139.944 155.323 140.139 155.766 140.529 156.078C140.928 156.38 141.449 156.531 142.092 156.531ZM146.39 157.641V156.531L149.998 152.849C150.963 151.885 151.445 151.057 151.445 150.365C151.445 149.791 151.27 149.343 150.919 149.021C150.568 148.7 150.14 148.539 149.633 148.539C148.669 148.539 147.968 148.997 147.529 149.912L146.39 149.24C146.711 148.578 147.154 148.076 147.719 147.736C148.294 147.395 148.927 147.224 149.619 147.224C150.476 147.224 151.221 147.507 151.854 148.072C152.487 148.637 152.804 149.396 152.804 150.351C152.804 151.383 152.195 152.508 150.977 153.726L148.362 156.326H152.994V157.641H146.39Z" fill="#0B1018"/>
<path d="M149.447 46.0481V43.5305H150.181V46.8234H144.345V46.0481H149.447ZM144.345 39.6125H145.079V41.3382H150.181V42.1051H145.079V43.8224H144.345V39.6125ZM150.289 36.4364C150.289 37.3201 149.997 38.0509 149.414 38.6289C148.83 39.2013 148.113 39.4875 147.263 39.4875C146.413 39.4875 145.696 39.2013 145.112 38.6289C144.529 38.0509 144.237 37.3201 144.237 36.4364C144.237 35.9029 144.365 35.4138 144.62 34.9692C144.876 34.5191 145.221 34.1689 145.654 33.9189L146.046 34.5941C145.724 34.7608 145.468 35.0109 145.279 35.3444C145.085 35.6723 144.987 36.0363 144.987 36.4364C144.987 37.1089 145.204 37.6591 145.638 38.087C146.071 38.5094 146.613 38.7206 147.263 38.7206C147.908 38.7206 148.447 38.5094 148.88 38.087C149.314 37.6591 149.531 37.1089 149.531 36.4364C149.531 36.0363 149.436 35.6723 149.247 35.3444C149.053 35.0109 148.797 34.7608 148.48 34.5941L148.864 33.9189C149.297 34.1634 149.644 34.5107 149.906 34.9609C150.161 35.4111 150.289 35.9029 150.289 36.4364Z" fill="#0B1018"/>
<path d="M156.782 153.742C156.53 153.742 156.321 153.659 156.154 153.492C155.987 153.326 155.904 153.122 155.904 152.881C155.904 152.644 155.987 152.442 156.154 152.275C156.324 152.105 156.534 152.02 156.782 152.02C157.034 152.02 157.243 152.103 157.41 152.27C157.577 152.436 157.66 152.64 157.66 152.881C157.66 153.122 157.577 153.326 157.41 153.492C157.247 153.659 157.038 153.742 156.782 153.742ZM156.46 153.209C156.545 153.294 156.652 153.337 156.782 153.337C156.912 153.337 157.017 153.292 157.099 153.203C157.184 153.114 157.227 153.007 157.227 152.881C157.227 152.755 157.184 152.65 157.099 152.564C157.017 152.475 156.912 152.431 156.782 152.431C156.652 152.431 156.545 152.475 156.46 152.564C156.378 152.65 156.337 152.755 156.337 152.881C156.337 153.011 156.378 153.12 156.46 153.209ZM156.165 155.432L158.749 152.542L159.022 152.692L156.432 155.588L156.165 155.432ZM159.088 155.799C158.922 155.966 158.712 156.049 158.46 156.049C158.208 156.049 157.999 155.966 157.832 155.799C157.666 155.632 157.582 155.428 157.582 155.187C157.582 154.947 157.666 154.743 157.832 154.576C157.999 154.409 158.208 154.326 158.46 154.326C158.712 154.326 158.922 154.409 159.088 154.576C159.255 154.743 159.338 154.947 159.338 155.187C159.338 155.428 159.255 155.632 159.088 155.799ZM158.138 155.51C158.223 155.595 158.331 155.638 158.46 155.638C158.59 155.638 158.696 155.595 158.777 155.51C158.862 155.421 158.905 155.313 158.905 155.187C158.905 155.061 158.862 154.956 158.777 154.871C158.696 154.782 158.59 154.737 158.46 154.737C158.331 154.737 158.223 154.782 158.138 154.871C158.056 154.956 158.016 155.061 158.016 155.187C158.016 155.313 158.056 155.421 158.138 155.51Z" fill="#0B1018"/>
<g filter="url(#filter2_dddddd_1_888)">
<rect x="184.787" y="17.166" width="53.2174" height="159.047" rx="26.6087" fill="#4F46BA"/>
</g>
<path d="M210.393 150.658C210.393 151.447 210.184 152.133 209.765 152.718H209.78L206.478 157.641H204.944L207.369 154.062C207.155 154.081 206.989 154.091 206.872 154.091C205.84 154.091 204.992 153.774 204.33 153.141C203.678 152.499 203.351 151.671 203.351 150.658C203.351 149.645 203.678 148.822 204.33 148.188C204.992 147.546 205.84 147.224 206.872 147.224C207.905 147.224 208.747 147.546 209.4 148.188C210.062 148.822 210.393 149.645 210.393 150.658ZM205.294 149.109C204.895 149.499 204.695 150.015 204.695 150.658C204.695 151.3 204.895 151.822 205.294 152.221C205.703 152.611 206.229 152.805 206.872 152.805C207.515 152.805 208.036 152.611 208.436 152.221C208.845 151.822 209.049 151.3 209.049 150.658C209.049 150.015 208.85 149.499 208.45 149.109C208.051 148.719 207.525 148.524 206.872 148.524C206.229 148.524 205.703 148.719 205.294 149.109ZM218.255 150.658C218.255 151.447 218.046 152.133 217.627 152.718H217.641L214.339 157.641H212.805L215.231 154.062C215.016 154.081 214.851 154.091 214.734 154.091C213.701 154.091 212.854 153.774 212.192 153.141C211.539 152.499 211.213 151.671 211.213 150.658C211.213 149.645 211.539 148.822 212.192 148.188C212.854 147.546 213.701 147.224 214.734 147.224C215.766 147.224 216.609 147.546 217.262 148.188C217.924 148.822 218.255 149.645 218.255 150.658ZM213.156 149.109C212.757 149.499 212.557 150.015 212.557 150.658C212.557 151.3 212.757 151.822 213.156 152.221C213.565 152.611 214.091 152.805 214.734 152.805C215.377 152.805 215.898 152.611 216.297 152.221C216.706 151.822 216.911 151.3 216.911 150.658C216.911 150.015 216.711 149.499 216.312 149.109C215.913 148.719 215.387 148.524 214.734 148.524C214.091 148.524 213.565 148.719 213.156 149.109Z" fill="white"/>
<path d="M221.679 153.742C221.427 153.742 221.218 153.659 221.051 153.492C220.884 153.326 220.801 153.122 220.801 152.881C220.801 152.644 220.884 152.442 221.051 152.275C221.222 152.105 221.431 152.02 221.679 152.02C221.931 152.02 222.14 152.103 222.307 152.27C222.474 152.436 222.557 152.64 222.557 152.881C222.557 153.122 222.474 153.326 222.307 153.492C222.144 153.659 221.935 153.742 221.679 153.742ZM221.357 153.209C221.442 153.294 221.549 153.337 221.679 153.337C221.809 153.337 221.914 153.292 221.996 153.203C222.081 153.114 222.124 153.007 222.124 152.881C222.124 152.755 222.081 152.65 221.996 152.564C221.914 152.475 221.809 152.431 221.679 152.431C221.549 152.431 221.442 152.475 221.357 152.564C221.275 152.65 221.235 152.755 221.235 152.881C221.235 153.011 221.275 153.12 221.357 153.209ZM221.062 155.432L223.646 152.542L223.919 152.692L221.329 155.588L221.062 155.432ZM223.985 155.799C223.819 155.966 223.609 156.049 223.357 156.049C223.106 156.049 222.896 155.966 222.729 155.799C222.563 155.632 222.479 155.428 222.479 155.187C222.479 154.947 222.563 154.743 222.729 154.576C222.896 154.409 223.106 154.326 223.357 154.326C223.609 154.326 223.819 154.409 223.985 154.576C224.152 154.743 224.236 154.947 224.236 155.187C224.236 155.428 224.152 155.632 223.985 155.799ZM223.035 155.51C223.12 155.595 223.228 155.638 223.357 155.638C223.487 155.638 223.593 155.595 223.674 155.51C223.759 155.421 223.802 155.313 223.802 155.187C223.802 155.061 223.759 154.956 223.674 154.871C223.593 154.782 223.487 154.737 223.357 154.737C223.228 154.737 223.12 154.782 223.035 154.871C222.954 154.956 222.913 155.061 222.913 155.187C222.913 155.313 222.954 155.421 223.035 155.51Z" fill="white"/>
<path d="M213.074 43.7955V44.6791L210.773 46.113L213.074 47.5468V48.4221L210.073 46.5464L207.238 48.3137V47.4384L209.364 46.113L207.238 44.7875V43.9122L210.064 45.6711L213.074 43.7955ZM213.074 39.5703L210.839 40.8791V42.2546H213.074V43.0298H207.238V40.6957C207.238 40.1955 207.416 39.7676 207.772 39.4119C208.122 39.0562 208.547 38.8784 209.047 38.8784C209.425 38.8784 209.77 38.9923 210.081 39.2201C210.392 39.4424 210.612 39.7314 210.739 40.0871L213.074 38.7116V39.5703ZM207.963 42.2546H210.139V40.6957C210.139 40.4067 210.034 40.1621 209.822 39.9621C209.606 39.7564 209.347 39.6536 209.047 39.6536C208.747 39.6536 208.491 39.7564 208.28 39.9621C208.069 40.1621 207.963 40.4067 207.963 40.6957V42.2546ZM207.238 35.8162C207.238 35.2771 207.419 34.8297 207.78 34.4741C208.136 34.1128 208.58 33.9322 209.114 33.9322C209.642 33.9322 210.086 34.1128 210.448 34.4741C210.809 34.8297 210.99 35.2771 210.99 35.8162V37.1583H213.074V37.9336H207.238V35.8162ZM210.264 35.8162C210.264 35.4939 210.156 35.2271 209.939 35.0159C209.717 34.8047 209.442 34.6991 209.114 34.6991C208.78 34.6991 208.505 34.8047 208.289 35.0159C208.072 35.2271 207.963 35.4939 207.963 35.8162V37.1583H210.264V35.8162Z" fill="white"/>
<g filter="url(#filter3_dddddd_1_888)">
<rect x="247.68" y="17.166" width="53.2174" height="159.047" rx="26.6087" fill="white"/>
<rect x="247.983" y="17.4684" width="52.6126" height="158.443" rx="26.3063" stroke="#E2E2E2" stroke-width="0.604743"/>
</g>
<path d="M267.762 150.95C268.784 150.95 269.627 151.271 270.289 151.914C270.952 152.547 271.283 153.37 271.283 154.383C271.283 155.396 270.952 156.224 270.289 156.867C269.627 157.51 268.784 157.831 267.762 157.831C266.729 157.831 265.882 157.51 265.219 156.867C264.567 156.224 264.241 155.396 264.241 154.383C264.241 153.594 264.445 152.912 264.854 152.338L268.141 147.414H269.69L267.279 150.979C267.494 150.96 267.654 150.95 267.762 150.95ZM266.184 155.947C266.593 156.336 267.119 156.531 267.762 156.531C268.404 156.531 268.926 156.336 269.325 155.947C269.734 155.547 269.939 155.026 269.939 154.383C269.939 153.74 269.734 153.224 269.325 152.835C268.926 152.445 268.404 152.25 267.762 152.25C267.109 152.25 266.583 152.445 266.184 152.835C265.784 153.224 265.585 153.74 265.585 154.383C265.585 155.026 265.784 155.547 266.184 155.947ZM278.26 150.658C278.26 151.447 278.05 152.133 277.631 152.718H277.646L274.344 157.641H272.81L275.235 154.062C275.021 154.081 274.856 154.091 274.739 154.091C273.706 154.091 272.859 153.774 272.196 153.141C271.544 152.499 271.218 151.671 271.218 150.658C271.218 149.645 271.544 148.822 272.196 148.188C272.859 147.546 273.706 147.224 274.739 147.224C275.771 147.224 276.614 147.546 277.266 148.188C277.929 148.822 278.26 149.645 278.26 150.658ZM273.161 149.109C272.761 149.499 272.562 150.015 272.562 150.658C272.562 151.3 272.761 151.822 273.161 152.221C273.57 152.611 274.096 152.805 274.739 152.805C275.381 152.805 275.903 152.611 276.302 152.221C276.711 151.822 276.916 151.3 276.916 150.658C276.916 150.015 276.716 149.499 276.317 149.109C275.917 148.719 275.391 148.524 274.739 148.524C274.096 148.524 273.57 148.719 273.161 149.109Z" fill="#0B1018"/>
<path d="M272.733 42.9722C272.861 42.7054 273.044 42.4942 273.283 42.3386C273.522 42.1774 273.797 42.0969 274.108 42.0969C274.575 42.0969 274.967 42.2608 275.284 42.5887C275.6 42.9166 275.759 43.3167 275.759 43.7891V46.3067H269.923V43.9725C269.923 43.5168 270.076 43.1306 270.382 42.8138C270.688 42.497 271.065 42.3386 271.516 42.3386C272.032 42.3386 272.438 42.5498 272.733 42.9722ZM270.649 43.9725V45.5314H272.433V43.9725C272.433 43.728 272.346 43.5224 272.174 43.3556C272.002 43.1889 271.791 43.1055 271.541 43.1055C271.296 43.1055 271.088 43.1917 270.915 43.364C270.738 43.5307 270.649 43.7335 270.649 43.9725ZM275.034 43.7891C275.034 43.5279 274.942 43.3084 274.758 43.1306C274.575 42.9527 274.35 42.8638 274.083 42.8638C273.822 42.8638 273.6 42.9555 273.416 43.1389C273.233 43.3167 273.141 43.5335 273.141 43.7891V45.5314H275.034V43.7891ZM275.025 40.4026V37.8851H275.759V41.1779H269.923V40.4026H275.025ZM269.923 33.9671H270.657V35.6927H275.759V36.4596H270.657V38.1769H269.923V33.9671Z" fill="#0B1018"/>
<path d="M282.568 153.742C282.316 153.742 282.107 153.659 281.94 153.492C281.774 153.326 281.69 153.122 281.69 152.881C281.69 152.644 281.774 152.442 281.94 152.275C282.111 152.105 282.32 152.02 282.568 152.02C282.82 152.02 283.03 152.103 283.196 152.27C283.363 152.436 283.446 152.64 283.446 152.881C283.446 153.122 283.363 153.326 283.196 153.492C283.033 153.659 282.824 153.742 282.568 153.742ZM282.246 153.209C282.331 153.294 282.439 153.337 282.568 153.337C282.698 153.337 282.804 153.292 282.885 153.203C282.97 153.114 283.013 153.007 283.013 152.881C283.013 152.755 282.97 152.65 282.885 152.564C282.804 152.475 282.698 152.431 282.568 152.431C282.439 152.431 282.331 152.475 282.246 152.564C282.165 152.65 282.124 152.755 282.124 152.881C282.124 153.011 282.165 153.12 282.246 153.209ZM281.952 155.432L284.536 152.542L284.808 152.692L282.218 155.588L281.952 155.432ZM284.875 155.799C284.708 155.966 284.499 156.049 284.247 156.049C283.995 156.049 283.785 155.966 283.619 155.799C283.452 155.632 283.369 155.428 283.369 155.187C283.369 154.947 283.452 154.743 283.619 154.576C283.785 154.409 283.995 154.326 284.247 154.326C284.499 154.326 284.708 154.409 284.875 154.576C285.041 154.743 285.125 154.947 285.125 155.187C285.125 155.428 285.041 155.632 284.875 155.799ZM283.924 155.51C284.01 155.595 284.117 155.638 284.247 155.638C284.376 155.638 284.482 155.595 284.564 155.51C284.649 155.421 284.691 155.313 284.691 155.187C284.691 155.061 284.649 154.956 284.564 154.871C284.482 154.782 284.376 154.737 284.247 154.737C284.117 154.737 284.01 154.782 283.924 154.871C283.843 154.956 283.802 155.061 283.802 155.187C283.802 155.313 283.843 155.421 283.924 155.51Z" fill="#0B1018"/>
<path d="M335.593 74.0149H336.285V75.4654H337.735V76.1573H336.285V77.5995H335.593V76.1573H334.15V75.4654H335.593V74.0149ZM338.86 66.988L337.552 67.4632V70.0891L338.86 70.5643V71.3896L333.025 69.2138V68.3385L338.86 66.1628V66.988ZM336.826 69.8224V67.73L333.95 68.7804L336.826 69.8224ZM333.025 63.1986C333.025 62.4038 333.309 61.7453 333.875 61.2228C334.437 60.6949 335.126 60.4309 335.943 60.4309C336.76 60.4309 337.452 60.6949 338.019 61.2228C338.58 61.7453 338.86 62.4038 338.86 63.1986V65.4744H333.025V63.1986ZM338.127 63.1986C338.127 62.6039 337.918 62.1176 337.502 61.7397C337.085 61.3618 336.565 61.1728 335.943 61.1728C335.32 61.1728 334.801 61.3618 334.384 61.7397C333.967 62.1176 333.759 62.6039 333.759 63.1986V64.6991H338.127V63.1986ZM333.025 57.215C333.025 56.4203 333.309 55.7617 333.875 55.2393C334.437 54.7113 335.126 54.4473 335.943 54.4473C336.76 54.4473 337.452 54.7113 338.019 55.2393C338.58 55.7617 338.86 56.4203 338.86 57.215V59.4908H333.025V57.215ZM338.127 57.215C338.127 56.6203 337.918 56.134 337.502 55.7561C337.085 55.3782 336.565 55.1893 335.943 55.1893C335.32 55.1893 334.801 55.3782 334.384 55.7561C333.967 56.134 333.759 56.6203 333.759 57.215V58.7155H338.127V57.215ZM333.025 47.7969V47.0216H338.86V47.6468L334.501 50.6479H338.86V51.4231H333.025V50.7979L337.377 47.7969H333.025ZM338.127 44.9981V42.2888H338.86V45.7734H333.025V42.3305H333.759V44.9981H335.551V42.5389H336.276V44.9981H338.127ZM338.86 40.0941L333.025 41.7697V40.9527L337.827 39.6189L333.025 38.2017V37.4181L337.827 36.0009L333.025 34.6671V33.8502L338.86 35.5258V36.4261L334.2 37.8099L338.86 39.1937V40.0941Z" fill="black"/>
<rect x="310.851" y="17.4439" width="52.6616" height="158.492" rx="26.3308" stroke="#607D7C" stroke-width="0.555753" stroke-dasharray="4.45 4.45"/>
<path d="M331.965 157.982L330.402 152.536H331.164L332.409 157.017L333.732 152.536H334.463L335.786 157.017L337.031 152.536H337.793L336.229 157.982H335.389L334.097 153.633L332.806 157.982H331.965ZM341.259 154.092H341.936V157.982H341.259V157.313C340.922 157.827 340.431 158.083 339.788 158.083C339.244 158.083 338.779 157.886 338.396 157.492C338.012 157.093 337.82 156.608 337.82 156.037C337.82 155.466 338.012 154.984 338.396 154.59C338.779 154.19 339.244 153.991 339.788 153.991C340.431 153.991 340.922 154.248 341.259 154.761V154.092ZM339.874 157.43C340.268 157.43 340.597 157.297 340.862 157.033C341.126 156.763 341.259 156.431 341.259 156.037C341.259 155.643 341.126 155.313 340.862 155.049C340.597 154.779 340.268 154.644 339.874 154.644C339.485 154.644 339.158 154.779 338.893 155.049C338.629 155.313 338.497 155.643 338.497 156.037C338.497 156.431 338.629 156.763 338.893 157.033C339.158 157.297 339.485 157.43 339.874 157.43ZM342.961 157.982V152.302H343.638V157.982H342.961Z" fill="#607D7C"/>
<defs>
<filter id="filter0_dddddd_1_888" x="0.558811" y="16.219" width="170.1" height="291.488" filterUnits="userSpaceOnUse" color-interpolation-filters="sRGB">
<feFlood flood-opacity="0" result="BackgroundImageFix"/>
<feColorMatrix in="SourceAlpha" type="matrix" values="0 0 0 0 0 0 0 0 0 0 0 0 0 0 0 0 0 0 127 0" result="hardAlpha"/>
<feOffset dy="1.35281"/>
<feGaussianBlur stdDeviation="1.14989"/>
<feColorMatrix type="matrix" values="0 0 0 0 0 0 0 0 0 0 0 0 0 0 0 0 0 0 0.01 0"/>
<feBlend mode="normal" in2="BackgroundImageFix" result="effect1_dropShadow_1_888"/>
<feColorMatrix in="SourceAlpha" type="matrix" values="0 0 0 0 0 0 0 0 0 0 0 0 0 0 0 0 0 0 127 0" result="hardAlpha"/>
<feOffset dy="5.95237"/>
<feGaussianBlur stdDeviation="2.38095"/>
<feColorMatrix type="matrix" values="0 0 0 0 0 0 0 0 0 0 0 0 0 0 0 0 0 0 0.01 0"/>
<feBlend mode="normal" in2="effect1_dropShadow_1_888" result="effect2_dropShadow_1_888"/>
<feColorMatrix in="SourceAlpha" type="matrix" values="0 0 0 0 0 0 0 0 0 0 0 0 0 0 0 0 0 0 127 0" result="hardAlpha"/>
<feOffset dy="14.6104"/>
<feGaussianBlur stdDeviation="4.74837"/>
<feColorMatrix type="matrix" values="0 0 0 0 0 0 0 0 0 0 0 0 0 0 0 0 0 0 0.01 0"/>
<feBlend mode="normal" in2="effect2_dropShadow_1_888" result="effect3_dropShadow_1_888"/>
<feColorMatrix in="SourceAlpha" type="matrix" values="0 0 0 0 0 0 0 0 0 0 0 0 0 0 0 0 0 0 127 0" result="hardAlpha"/>
<feOffset dy="28.1385"/>
<feGaussianBlur stdDeviation="9.30734"/>
<feColorMatrix type="matrix" values="0 0 0 0 0 0 0 0 0 0 0 0 0 0 0 0 0 0 0.01 0"/>
<feBlend mode="normal" in2="effect3_dropShadow_1_888" result="effect4_dropShadow_1_888"/>
<feColorMatrix in="SourceAlpha" type="matrix" values="0 0 0 0 0 0 0 0 0 0 0 0 0 0 0 0 0 0 127 0" result="hardAlpha"/>
<feOffset dy="47.3484"/>
<feGaussianBlur stdDeviation="17.1131"/>
<feColorMatrix type="matrix" values="0 0 0 0 0 0 0 0 0 0 0 0 0 0 0 0 0 0 0.01 0"/>
<feBlend mode="normal" in2="effect4_dropShadow_1_888" result="effect5_dropShadow_1_888"/>
<feColorMatrix in="SourceAlpha" type="matrix" values="0 0 0 0 0 0 0 0 0 0 0 0 0 0 0 0 0 0 127 0" result="hardAlpha"/>
<feOffset dy="73.0518"/>
<feGaussianBlur stdDeviation="29.2207"/>
<feColorMatrix type="matrix" values="0 0 0 0 0 0 0 0 0 0 0 0 0 0 0 0 0 0 0.01 0"/>
<feBlend mode="normal" in2="effect5_dropShadow_1_888" result="effect6_dropShadow_1_888"/>
<feBlend mode="normal" in="SourceGraphic" in2="effect6_dropShadow_1_888" result="shape"/>
</filter>
<filter id="filter1_dddddd_1_888" x="63.4524" y="16.219" width="170.1" height="291.488" filterUnits="userSpaceOnUse" color-interpolation-filters="sRGB">
<feFlood flood-opacity="0" result="BackgroundImageFix"/>
<feColorMatrix in="SourceAlpha" type="matrix" values="0 0 0 0 0 0 0 0 0 0 0 0 0 0 0 0 0 0 127 0" result="hardAlpha"/>
<feOffset dy="1.35281"/>
<feGaussianBlur stdDeviation="1.14989"/>
<feColorMatrix type="matrix" values="0 0 0 0 0 0 0 0 0 0 0 0 0 0 0 0 0 0 0.01 0"/>
<feBlend mode="normal" in2="BackgroundImageFix" result="effect1_dropShadow_1_888"/>
<feColorMatrix in="SourceAlpha" type="matrix" values="0 0 0 0 0 0 0 0 0 0 0 0 0 0 0 0 0 0 127 0" result="hardAlpha"/>
<feOffset dy="5.95237"/>
<feGaussianBlur stdDeviation="2.38095"/>
<feColorMatrix type="matrix" values="0 0 0 0 0 0 0 0 0 0 0 0 0 0 0 0 0 0 0.01 0"/>
<feBlend mode="normal" in2="effect1_dropShadow_1_888" result="effect2_dropShadow_1_888"/>
<feColorMatrix in="SourceAlpha" type="matrix" values="0 0 0 0 0 0 0 0 0 0 0 0 0 0 0 0 0 0 127 0" result="hardAlpha"/>
<feOffset dy="14.6104"/>
<feGaussianBlur stdDeviation="4.74837"/>
<feColorMatrix type="matrix" values="0 0 0 0 0 0 0 0 0 0 0 0 0 0 0 0 0 0 0.01 0"/>
<feBlend mode="normal" in2="effect2_dropShadow_1_888" result="effect3_dropShadow_1_888"/>
<feColorMatrix in="SourceAlpha" type="matrix" values="0 0 0 0 0 0 0 0 0 0 0 0 0 0 0 0 0 0 127 0" result="hardAlpha"/>
<feOffset dy="28.1385"/>
<feGaussianBlur stdDeviation="9.30734"/>
<feColorMatrix type="matrix" values="0 0 0 0 0 0 0 0 0 0 0 0 0 0 0 0 0 0 0.01 0"/>
<feBlend mode="normal" in2="effect3_dropShadow_1_888" result="effect4_dropShadow_1_888"/>
<feColorMatrix in="SourceAlpha" type="matrix" values="0 0 0 0 0 0 0 0 0 0 0 0 0 0 0 0 0 0 127 0" result="hardAlpha"/>
<feOffset dy="47.3484"/>
<feGaussianBlur stdDeviation="17.1131"/>
<feColorMatrix type="matrix" values="0 0 0 0 0 0 0 0 0 0 0 0 0 0 0 0 0 0 0.01 0"/>
<feBlend mode="normal" in2="effect4_dropShadow_1_888" result="effect5_dropShadow_1_888"/>
<feColorMatrix in="SourceAlpha" type="matrix" values="0 0 0 0 0 0 0 0 0 0 0 0 0 0 0 0 0 0 127 0" result="hardAlpha"/>
<feOffset dy="73.0518"/>
<feGaussianBlur stdDeviation="29.2207"/>
<feColorMatrix type="matrix" values="0 0 0 0 0 0 0 0 0 0 0 0 0 0 0 0 0 0 0.01 0"/>
<feBlend mode="normal" in2="effect5_dropShadow_1_888" result="effect6_dropShadow_1_888"/>
<feBlend mode="normal" in="SourceGraphic" in2="effect6_dropShadow_1_888" result="shape"/>
</filter>
<filter id="filter2_dddddd_1_888" x="137.303" y="0.364107" width="148.185" height="254.015" filterUnits="userSpaceOnUse" color-interpolation-filters="sRGB">
<feFlood flood-opacity="0" result="BackgroundImageFix"/>
<feColorMatrix in="SourceAlpha" type="matrix" values="0 0 0 0 0 0 0 0 0 0 0 0 0 0 0 0 0 0 127 0" result="hardAlpha"/>
<feOffset dy="0.568181"/>
<feGaussianBlur stdDeviation="0.934285"/>
<feColorMatrix type="matrix" values="0 0 0 0 0.0784314 0 0 0 0 0.133333 0 0 0 0 0.956863 0 0 0 0.0337037 0"/>
<feBlend mode="normal" in2="BackgroundImageFix" result="effect1_dropShadow_1_888"/>
<feColorMatrix in="SourceAlpha" type="matrix" values="0 0 0 0 0 0 0 0 0 0 0 0 0 0 0 0 0 0 127 0" result="hardAlpha"/>
<feOffset dy="2.49999"/>
<feGaussianBlur stdDeviation="1.93452"/>
<feColorMatrix type="matrix" values="0 0 0 0 0.0784314 0 0 0 0 0.133333 0 0 0 0 0.956863 0 0 0 0.054963 0"/>
<feBlend mode="normal" in2="effect1_dropShadow_1_888" result="effect2_dropShadow_1_888"/>
<feColorMatrix in="SourceAlpha" type="matrix" values="0 0 0 0 0 0 0 0 0 0 0 0 0 0 0 0 0 0 127 0" result="hardAlpha"/>
<feOffset dy="6.13635"/>
<feGaussianBlur stdDeviation="3.85805"/>
<feColorMatrix type="matrix" values="0 0 0 0 0.0784314 0 0 0 0 0.133333 0 0 0 0 0.956863 0 0 0 0.07 0"/>
<feBlend mode="normal" in2="effect2_dropShadow_1_888" result="effect3_dropShadow_1_888"/>
<feColorMatrix in="SourceAlpha" type="matrix" values="0 0 0 0 0 0 0 0 0 0 0 0 0 0 0 0 0 0 127 0" result="hardAlpha"/>
<feOffset dy="11.8182"/>
<feGaussianBlur stdDeviation="7.56221"/>
<feColorMatrix type="matrix" values="0 0 0 0 0.0784314 0 0 0 0 0.133333 0 0 0 0 0.956863 0 0 0 0.085037 0"/>
<feBlend mode="normal" in2="effect3_dropShadow_1_888" result="effect4_dropShadow_1_888"/>
<feColorMatrix in="SourceAlpha" type="matrix" values="0 0 0 0 0 0 0 0 0 0 0 0 0 0 0 0 0 0 127 0" result="hardAlpha"/>
<feOffset dy="19.8863"/>
<feGaussianBlur stdDeviation="13.9044"/>
<feColorMatrix type="matrix" values="0 0 0 0 0.0784314 0 0 0 0 0.133333 0 0 0 0 0.956863 0 0 0 0.106296 0"/>
<feBlend mode="normal" in2="effect4_dropShadow_1_888" result="effect5_dropShadow_1_888"/>
<feColorMatrix in="SourceAlpha" type="matrix" values="0 0 0 0 0 0 0 0 0 0 0 0 0 0 0 0 0 0 127 0" result="hardAlpha"/>
<feOffset dy="30.6818"/>
<feGaussianBlur stdDeviation="23.7418"/>
<feColorMatrix type="matrix" values="0 0 0 0 0.0784314 0 0 0 0 0.133333 0 0 0 0 0.956863 0 0 0 0.14 0"/>
<feBlend mode="normal" in2="effect5_dropShadow_1_888" result="effect6_dropShadow_1_888"/>
<feBlend mode="normal" in="SourceGraphic" in2="effect6_dropShadow_1_888" result="shape"/>
</filter>
<filter id="filter3_dddddd_1_888" x="189.239" y="16.219" width="170.1" height="291.488" filterUnits="userSpaceOnUse" color-interpolation-filters="sRGB">
<feFlood flood-opacity="0" result="BackgroundImageFix"/>
<feColorMatrix in="SourceAlpha" type="matrix" values="0 0 0 0 0 0 0 0 0 0 0 0 0 0 0 0 0 0 127 0" result="hardAlpha"/>
<feOffset dy="1.35281"/>
<feGaussianBlur stdDeviation="1.14989"/>
<feColorMatrix type="matrix" values="0 0 0 0 0 0 0 0 0 0 0 0 0 0 0 0 0 0 0.01 0"/>
<feBlend mode="normal" in2="BackgroundImageFix" result="effect1_dropShadow_1_888"/>
<feColorMatrix in="SourceAlpha" type="matrix" values="0 0 0 0 0 0 0 0 0 0 0 0 0 0 0 0 0 0 127 0" result="hardAlpha"/>
<feOffset dy="5.95237"/>
<feGaussianBlur stdDeviation="2.38095"/>
<feColorMatrix type="matrix" values="0 0 0 0 0 0 0 0 0 0 0 0 0 0 0 0 0 0 0.01 0"/>
<feBlend mode="normal" in2="effect1_dropShadow_1_888" result="effect2_dropShadow_1_888"/>
<feColorMatrix in="SourceAlpha" type="matrix" values="0 0 0 0 0 0 0 0 0 0 0 0 0 0 0 0 0 0 127 0" result="hardAlpha"/>
<feOffset dy="14.6104"/>
<feGaussianBlur stdDeviation="4.74837"/>
<feColorMatrix type="matrix" values="0 0 0 0 0 0 0 0 0 0 0 0 0 0 0 0 0 0 0.01 0"/>
<feBlend mode="normal" in2="effect2_dropShadow_1_888" result="effect3_dropShadow_1_888"/>
<feColorMatrix in="SourceAlpha" type="matrix" values="0 0 0 0 0 0 0 0 0 0 0 0 0 0 0 0 0 0 127 0" result="hardAlpha"/>
<feOffset dy="28.1385"/>
<feGaussianBlur stdDeviation="9.30734"/>
<feColorMatrix type="matrix" values="0 0 0 0 0 0 0 0 0 0 0 0 0 0 0 0 0 0 0.01 0"/>
<feBlend mode="normal" in2="effect3_dropShadow_1_888" result="effect4_dropShadow_1_888"/>
<feColorMatrix in="SourceAlpha" type="matrix" values="0 0 0 0 0 0 0 0 0 0 0 0 0 0 0 0 0 0 127 0" result="hardAlpha"/>
<feOffset dy="47.3484"/>
<feGaussianBlur stdDeviation="17.1131"/>
<feColorMatrix type="matrix" values="0 0 0 0 0 0 0 0 0 0 0 0 0 0 0 0 0 0 0.01 0"/>
<feBlend mode="normal" in2="effect4_dropShadow_1_888" result="effect5_dropShadow_1_888"/>
<feColorMatrix in="SourceAlpha" type="matrix" values="0 0 0 0 0 0 0 0 0 0 0 0 0 0 0 0 0 0 127 0" result="hardAlpha"/>
<feOffset dy="73.0518"/>
<feGaussianBlur stdDeviation="29.2207"/>
<feColorMatrix type="matrix" values="0 0 0 0 0 0 0 0 0 0 0 0 0 0 0 0 0 0 0.01 0"/>
<feBlend mode="normal" in2="effect5_dropShadow_1_888" result="effect6_dropShadow_1_888"/>
<feBlend mode="normal" in="SourceGraphic" in2="effect6_dropShadow_1_888" result="shape"/>
</filter>
</defs>
</svg>
