<svg width="138" height="33" viewBox="0 0 138 33" fill="none" xmlns="http://www.w3.org/2000/svg">
<g id="Group">
<path id="Vector" d="M0.520408 24.3274C0.355933 24.2324 0.221191 23.9995 0.221191 23.8104V8.32749C0.221191 8.1381 0.355933 7.90557 0.520408 7.81035L14.1012 0.0712809C14.2658 -0.0237603 14.5351 -0.0237603 14.6998 0.0712809L28.2797 7.81121C28.4443 7.90625 28.5789 8.13879 28.5789 8.32818V23.8111C28.5789 24 28.4443 24.2327 28.2797 24.3281L14.6998 32.0674C14.5351 32.1624 14.2658 32.1624 14.1012 32.0674L0.520408 24.3274ZM41.3352 9.86843V16.1484H44.0206C45.9695 16.1484 46.8357 15.3544 46.8357 14.0551V11.9617C46.8357 10.6626 45.9695 9.86843 44.0206 9.86843H41.3352ZM41.3352 18.1454V23.7517C41.3352 24.0884 41.2486 24.2327 40.9454 24.2327H39.6243C39.3428 24.2327 39.2345 24.0884 39.2345 23.7517V8.35276C39.2345 8.0159 39.3428 7.87137 39.6243 7.87137H44.0206C47.7454 7.87137 48.9364 9.60376 48.9364 11.5768V14.4402C48.9364 16.413 47.7454 18.1454 44.0206 18.1454H41.3352ZM53.8236 9.86843V15.7634H56.5088C58.4579 15.7634 59.3243 14.9934 59.3243 13.6701V11.9617C59.3243 10.6626 58.4579 9.86843 56.5088 9.86843H53.8236ZM53.8236 17.7605V23.7517C53.8236 24.0884 53.7368 24.2327 53.4336 24.2327H52.1127C51.8312 24.2327 51.7229 24.0884 51.7229 23.7517V8.35276C51.7229 8.0159 51.8312 7.87137 52.1127 7.87137H56.5088C60.2338 7.87137 61.4248 9.60376 61.4248 11.5768V14.0791C61.4248 15.5468 60.7535 16.8702 58.891 17.4478L61.4898 23.7517C61.5981 24.0404 61.4032 24.2327 61.1 24.2327H59.8005C59.4974 24.2327 59.4541 24.0404 59.3243 23.7517L56.8769 17.7605H53.8236ZM72.8093 11.7693C72.8093 10.47 71.8952 9.67595 69.838 9.67595C67.8036 9.67595 66.8894 10.47 66.8894 11.7693V20.3348C66.8894 21.6343 67.8036 22.4281 69.838 22.4281C71.8952 22.4281 72.8093 21.6343 72.8093 20.3348V11.7693ZM64.6494 11.3843C64.6494 9.41127 65.9294 7.67905 69.838 7.67905C73.7694 7.67905 75.0496 9.41127 75.0496 11.3843V20.72C75.0496 22.693 73.7694 24.4254 69.838 24.4254C65.9294 24.4254 64.6494 22.693 64.6494 20.72V11.3843ZM87.1183 7.87137C87.4154 7.87137 87.5526 7.99184 87.5526 8.32853V9.41127C87.5526 9.74813 87.4154 9.86843 87.1183 9.86843H83.4612V23.7517C83.4612 24.0884 83.3469 24.2327 83.0495 24.2327H81.6325C81.3354 24.2327 81.2211 24.0884 81.2211 23.7517V9.86843H77.5638C77.244 9.86843 77.1297 9.74813 77.1297 9.41127V8.32853C77.1297 7.99184 77.244 7.87137 77.5638 7.87137H87.1183ZM97.7705 11.7693C97.7705 10.47 96.8561 9.67595 94.7991 9.67595C92.7647 9.67595 91.8504 10.47 91.8504 11.7693V20.3348C91.8504 21.6343 92.7647 22.4281 94.7991 22.4281C96.8561 22.4281 97.7705 21.6343 97.7705 20.3348V11.7693ZM89.6103 11.3843C89.6103 9.41127 90.8904 7.67905 94.7991 7.67905C98.7305 7.67905 100.011 9.41127 100.011 11.3843V20.72C100.011 22.693 98.7305 24.4254 94.7991 24.4254C90.8904 24.4254 89.6103 22.693 89.6103 20.72V11.3843ZM113.241 23.7756C113.241 24.0884 113.155 24.2327 112.851 24.2327H111.66C111.444 24.2327 111.357 24.1605 111.271 24.0162L106.181 14.1034C105.705 13.2129 105.445 12.467 105.402 12.3708V23.7756C105.402 24.0884 105.293 24.2327 105.012 24.2327H103.799C103.518 24.2327 103.409 24.0884 103.409 23.7756V8.32853C103.409 8.0159 103.518 7.87137 103.799 7.87137H105.012C105.185 7.87137 105.293 7.94355 105.358 8.06385L110.577 18.1936C110.881 18.771 111.249 19.7333 111.249 19.7333V8.32853C111.249 8.0159 111.379 7.87137 111.66 7.87137H112.851C113.155 7.87137 113.241 8.0159 113.241 8.32853V23.7756ZM116.965 24.2327C116.684 24.2327 116.576 24.0884 116.576 23.7517V8.35276C116.576 8.0159 116.684 7.87137 116.965 7.87137H124.372C124.653 7.87137 124.783 7.99184 124.783 8.32853V9.41127C124.783 9.74813 124.653 9.86843 124.372 9.86843H118.676V14.7288H123.982C124.285 14.7288 124.415 14.8491 124.415 15.1859V16.2206C124.415 16.5334 124.285 16.6777 123.982 16.6777H118.676V22.2358H124.61C124.891 22.2358 125.021 22.3321 125.021 22.6688V23.7756C125.021 24.1126 124.891 24.2327 124.61 24.2327H116.965ZM136.958 7.87137C137.239 7.87137 137.369 7.99184 137.369 8.32853V9.41127C137.369 9.74813 137.239 9.86843 136.958 9.86843H133.493V23.7517C133.493 24.0884 133.384 24.2327 133.103 24.2327H131.76C131.479 24.2327 131.371 24.0884 131.371 23.7517V9.86843H127.906C127.602 9.86843 127.494 9.74813 127.494 9.41127V8.32853C127.494 7.99184 127.602 7.87137 127.906 7.87137H136.958Z" fill="#E15B29"/>
</g>
</svg>
