<svg width="21" height="21" viewBox="0 0 21 21" fill="none" xmlns="http://www.w3.org/2000/svg">
<g id="096-twitter" clip-path="url(#clip0_1_452)">
<path id="Vector" d="M18.9189 6.42748C19.7322 5.84999 20.4164 5.12915 20.9739 4.29915V4.29832C20.2297 4.62415 19.438 4.84082 18.6114 4.94582C19.4614 4.43832 20.1105 3.64082 20.4155 2.67998C19.623 3.15248 18.748 3.48582 17.8155 3.67248C17.063 2.87082 15.9905 2.37498 14.8205 2.37498C12.5505 2.37498 10.723 4.21748 10.723 6.47582C10.723 6.80082 10.7505 7.11332 10.818 7.41082C7.40971 7.24415 4.39304 5.61082 2.36638 3.12165C2.01304 3.73582 1.80471 4.43832 1.80471 5.19415C1.80471 6.61415 2.53554 7.87249 3.62638 8.60165C2.96721 8.58915 2.32138 8.39749 1.77388 8.09665V8.14165C1.77388 10.1342 3.19471 11.7892 5.05888 12.1708C4.72471 12.2625 4.36138 12.3058 3.98388 12.3058C3.72138 12.3058 3.45638 12.2908 3.20804 12.2358C3.73888 13.8592 5.24721 15.0533 7.03888 15.0925C5.64388 16.1833 3.87221 16.8408 1.95471 16.8408C1.61888 16.8408 1.29638 16.8258 0.973877 16.785C2.79054 17.9558 4.94221 18.625 7.26388 18.625C14.4997 18.625 19.2155 12.5883 18.9189 6.42748Z" fill="#3734A9"/>
</g>
<defs>
<clipPath id="clip0_1_452">
<rect width="20" height="20" fill="white" transform="translate(0.973877 0.5)"/>
</clipPath>
</defs>
</svg>
